<svg width="28" height="32" viewBox="0 0 28 32" fill="none" xmlns="http://www.w3.org/2000/svg">
<path d="M18.3332 5.9637V4.92877C18.2975 2.64479 16.4418 0.789062 14.1578 0.789062C11.8739 0.789062 10.0181 2.64479 9.98244 4.96446V5.9637C6.34235 7.6053 3.987 11.2454 3.987 15.2423V18.6326H24.3287V15.4208C24.3287 11.3881 21.9733 7.71237 18.3332 5.9637Z" fill="white"/>
<path d="M25.2923 20.417H3.02354C1.66743 21.7374 0.917999 23.5218 0.917999 25.4489V26.3054C0.917999 26.9477 1.45331 27.4473 2.05999 27.4473H9.12604C9.76841 30.2309 12.5163 31.9439 15.2999 31.3372C17.227 30.909 18.7616 29.3744 19.1898 27.4473H26.2559C26.8982 27.4473 27.3979 26.912 27.3979 26.3054V25.4489C27.4335 23.5218 26.6484 21.7374 25.2923 20.417Z" fill="white"/>
</svg>
