<svg width="43" height="30" viewBox="0 0 43 30" fill="none" xmlns="http://www.w3.org/2000/svg">
<path fill-rule="evenodd" clip-rule="evenodd" d="M35.973 0.0419922H6.71584C3.03447 0.0419922 0.03125 3.04522 0.03125 6.72658V22.4693C0.03125 26.1022 3.03447 29.1054 6.71584 29.1054H36.0215C39.6544 29.1054 42.6576 26.1022 42.6576 22.4208V6.72658C42.6576 3.04522 39.6544 0.0419922 35.973 0.0419922ZM25.5586 9.77825H32.8245C33.5511 9.77825 34.1808 10.3595 34.1808 11.1345C34.1808 11.9096 33.5995 12.4908 32.8245 12.4908H25.5586C24.832 12.4908 24.2023 11.9096 24.2023 11.1345C24.2023 10.3595 24.832 9.77825 25.5586 9.77825ZM19.9397 14.5737C19.9397 18.4004 16.888 21.5005 13.0614 21.5005C9.23467 21.5489 6.08613 18.4488 6.08613 14.6221C6.03769 10.7955 9.13779 7.64692 12.9645 7.64692C16.7912 7.59849 19.8913 10.6986 19.9397 14.5253V14.5737ZM33.3573 19.3692H25.5586C24.832 19.3692 24.2023 18.7879 24.2023 18.0129C24.2023 17.2379 24.7836 16.6566 25.5586 16.6566H33.3573C34.0839 16.6566 34.7136 17.2379 34.7136 18.0129C34.7136 18.7879 34.0839 19.3692 33.3573 19.3692Z" fill="white"/>
</svg>
