<svg width="34" height="30" viewBox="0 0 34 30" fill="none" xmlns="http://www.w3.org/2000/svg">
<path d="M33.432 7.96981C33.2254 7.47393 32.8122 7.0607 32.3163 6.85408L17.8532 0.696952C17.316 0.490339 16.7375 0.490339 16.2003 0.696952L1.73725 6.89541C0.662852 7.34996 0.166976 8.58964 0.621529 9.66405C0.828144 10.1599 1.24137 10.5732 1.73725 10.7798L16.2003 16.9369C16.7375 17.1435 17.316 17.1435 17.8532 16.9369L32.3163 10.7384C33.3907 10.2839 33.8866 9.0442 33.432 7.96981Z" fill="white"/>
<path d="M33.6803 20.4498C33.3084 19.3341 32.11 18.7142 30.9943 19.0861C30.8703 19.1275 30.7463 19.1688 30.6224 19.2514L16.9858 25.0367L3.34917 19.2514C2.27477 18.7969 1.03508 19.2928 0.580529 20.3672C0.125976 21.4416 0.621852 22.6812 1.69625 23.1358L16.1593 29.2929C16.6965 29.4995 17.275 29.4995 17.8122 29.2929L32.2753 23.0945C33.4323 22.7639 34.0522 21.5656 33.6803 20.4498Z" fill="white"/>
<path d="M33.432 14.2096C32.9775 13.0939 31.7378 12.598 30.6634 13.0526L17.0268 18.8791L3.39017 13.0526C2.31577 12.598 1.07608 13.0939 0.621529 14.1683C0.166976 15.2427 0.662852 16.4824 1.73725 16.9369L16.2003 23.1354C16.7375 23.342 17.316 23.342 17.8532 23.1354L32.3163 16.9783C33.3907 16.5237 33.8866 15.284 33.432 14.2096Z" fill="white"/>
</svg>
