<svg width="149" height="107" viewBox="0 0 149 107" fill="none" xmlns="http://www.w3.org/2000/svg">
<g clip-path="url(#clip0_13_6)">
<path fill-rule="evenodd" clip-rule="evenodd" d="M93.4412 46.0928C92.7079 46.0928 92.1178 45.8693 91.6707 45.4222C91.2236 44.9751 91 44.3849 91 43.6516V29.2996C91 28.5664 91.1967 28.003 91.5902 27.6096C91.9836 27.2161 92.547 27.0194 93.2802 27.0194H102.294C103.099 27.0194 103.689 27.1759 104.064 27.4889C104.44 27.8018 104.628 28.2981 104.628 28.9777C104.628 29.6394 104.435 30.1223 104.051 30.4263C103.666 30.7304 103.081 30.8824 102.294 30.8824H95.8555V34.3698H101.757C102.544 34.3698 103.13 34.5307 103.514 34.8526C103.899 35.1746 104.091 35.6664 104.091 36.3281C104.091 36.9898 103.899 37.4727 103.514 37.7767C103.13 38.0807 102.544 38.2327 101.757 38.2327H95.8555V43.6516C95.8555 44.4028 95.6364 44.9974 95.1983 45.4356C94.7601 45.8737 94.1744 46.0928 93.4412 46.0928ZM108.035 46.0928C107.355 46.0928 106.787 45.9095 106.331 45.5429C105.875 45.1763 105.647 44.6263 105.647 43.8931V34.6649C105.647 33.9316 105.875 33.3817 106.331 33.015C106.787 32.6484 107.355 32.4651 108.035 32.4651C108.714 32.4651 109.282 32.6484 109.738 33.015C110.194 33.3817 110.422 33.9316 110.422 34.6649V43.8931C110.422 44.6263 110.194 45.1763 109.738 45.5429C109.282 45.9095 108.714 46.0928 108.035 46.0928ZM108.035 30.5873C107.23 30.5873 106.59 30.3771 106.116 29.9569C105.643 29.5366 105.406 28.9777 105.406 28.2802C105.406 27.5827 105.643 27.0283 106.116 26.617C106.59 26.2057 107.23 26 108.035 26C108.821 26 109.456 26.2057 109.939 26.617C110.422 27.0283 110.664 27.5827 110.664 28.2802C110.664 28.9777 110.427 29.5366 109.953 29.9569C109.479 30.3771 108.839 30.5873 108.035 30.5873ZM115.036 46.0928C114.357 46.0928 113.789 45.9095 113.333 45.5429C112.877 45.1763 112.649 44.6263 112.649 43.8931V29.1118C112.649 28.3786 112.877 27.8242 113.333 27.4486C113.789 27.073 114.357 26.8853 115.036 26.8853C115.716 26.8853 116.284 27.073 116.74 27.4486C117.196 27.8242 117.424 28.3786 117.424 29.1118V43.8931C117.424 44.6263 117.196 45.1763 116.74 45.5429C116.284 45.9095 115.716 46.0928 115.036 46.0928ZM126.303 46.1465C124.854 46.1465 123.58 45.8648 122.48 45.3014C121.381 44.7381 120.531 43.9378 119.932 42.9005C119.333 41.8632 119.033 40.6471 119.033 39.2521C119.033 37.8572 119.333 36.6455 119.932 35.6172C120.531 34.5889 121.376 33.7975 122.467 33.2431C123.558 32.6887 124.837 32.4115 126.303 32.4115C127.77 32.4115 129.048 32.6887 130.139 33.2431C131.23 33.7975 132.075 34.5889 132.674 35.6172C133.273 36.6455 133.573 37.8572 133.573 39.2521C133.573 40.6471 133.273 41.8632 132.674 42.9005C132.075 43.9378 131.23 44.7381 130.139 45.3014C129.048 45.8648 127.77 46.1465 126.303 46.1465ZM126.303 42.5786C128.002 42.5786 128.852 41.4698 128.852 39.2521C128.852 37.0345 128.002 35.9257 126.303 35.9257C124.604 35.9257 123.755 37.0345 123.755 39.2521C123.755 41.4698 124.604 42.5786 126.303 42.5786ZM144.089 32.4115C145.663 32.4115 146.834 32.8809 147.603 33.8198C148.372 34.7587 148.757 36.185 148.757 38.0986V43.8931C148.757 44.5727 148.542 45.1092 148.113 45.5026C147.683 45.8961 147.102 46.0928 146.369 46.0928C145.636 46.0928 145.055 45.8961 144.625 45.5026C144.196 45.1092 143.981 44.5727 143.981 43.8931V38.3132C143.981 37.5263 143.843 36.954 143.566 36.5963C143.288 36.2387 142.873 36.0598 142.318 36.0598C141.603 36.0598 141.035 36.2878 140.615 36.7439C140.195 37.1999 139.984 37.8125 139.984 38.5815V43.8931C139.984 44.5727 139.77 45.1092 139.341 45.5026C138.911 45.8961 138.33 46.0928 137.597 46.0928C136.864 46.0928 136.282 45.8961 135.853 45.5026C135.424 45.1092 135.209 44.5727 135.209 43.8931V34.6112C135.209 33.9853 135.433 33.4711 135.88 33.0687C136.327 32.6663 136.908 32.4651 137.624 32.4651C138.303 32.4651 138.844 32.6529 139.247 33.0285C139.649 33.404 139.85 33.8958 139.85 34.5039C140.315 33.8243 140.914 33.3057 141.648 32.948C142.381 32.5903 143.195 32.4115 144.089 32.4115Z" fill="#081420"/>
<path fill-rule="evenodd" clip-rule="evenodd" d="M102.597 51.6199C102.646 51.4883 102.72 51.3896 102.819 51.3238C102.918 51.258 103.029 51.2251 103.152 51.2251C103.309 51.2251 103.446 51.2765 103.566 51.3793C103.685 51.4821 103.744 51.6158 103.744 51.7803C103.744 51.8708 103.728 51.953 103.695 52.027L100.969 59.6515C100.911 59.7913 100.821 59.8982 100.697 59.9723C100.574 60.0463 100.438 60.0833 100.29 60.0833C100.15 60.0833 100.019 60.0463 99.8952 59.9723C99.7718 59.8982 99.6855 59.7913 99.6361 59.6515L97.3907 53.2854L95.096 59.6515C95.0466 59.7913 94.9603 59.8982 94.8369 59.9723C94.7135 60.0463 94.5819 60.0833 94.4421 60.0833C94.2941 60.0833 94.1604 60.0463 94.0411 59.9723C93.9219 59.8982 93.8335 59.7913 93.7759 59.6515L91.0493 52.027C91.0164 51.953 91 51.8708 91 51.7803C91 51.6158 91.0617 51.4821 91.1851 51.3793C91.3084 51.2765 91.4565 51.2251 91.6292 51.2251C91.7526 51.2251 91.8657 51.258 91.9685 51.3238C92.0713 51.3896 92.1474 51.4883 92.1967 51.6199L94.4791 58.1833L96.7985 51.6816C96.8479 51.5418 96.9281 51.4348 97.0391 51.3608C97.1502 51.2868 97.2715 51.2498 97.4031 51.2498C97.5347 51.2498 97.6539 51.2888 97.7609 51.367C97.8678 51.4451 97.95 51.5541 98.0076 51.6939L100.278 58.245L102.597 51.6199ZM108.815 58.4794C108.93 58.4794 109.025 58.5247 109.099 58.6152C109.173 58.7056 109.21 58.8208 109.21 58.9606C109.21 59.1991 109.062 59.4006 108.766 59.5651C108.478 59.7296 108.163 59.8571 107.822 59.9476C107.481 60.0381 107.154 60.0833 106.841 60.0833C105.887 60.0833 105.134 59.8057 104.583 59.2505C104.032 58.6953 103.757 57.9366 103.757 56.9743C103.757 56.3574 103.878 55.8105 104.121 55.3334C104.363 54.8564 104.705 54.4863 105.145 54.2231C105.585 53.9599 106.084 53.8283 106.644 53.8283C107.45 53.8283 108.087 54.0874 108.556 54.6055C109.025 55.1237 109.259 55.8228 109.259 56.7029C109.259 57.0319 109.111 57.1964 108.815 57.1964H105.003C105.085 58.4712 105.698 59.1086 106.841 59.1086C107.145 59.1086 107.409 59.0675 107.631 58.9853C107.853 58.903 108.087 58.7961 108.334 58.6645C108.359 58.6481 108.426 58.6131 108.538 58.5596C108.649 58.5062 108.741 58.4794 108.815 58.4794ZM106.668 54.7412C106.191 54.7412 105.809 54.8934 105.521 55.1977C105.233 55.502 105.06 55.9297 105.003 56.4808H108.186C108.161 55.9215 108.019 55.4918 107.76 55.1915C107.501 54.8913 107.137 54.7412 106.668 54.7412ZM113.614 53.8283C114.141 53.8283 114.605 53.9558 115.008 54.2107C115.411 54.4657 115.726 54.8276 115.952 55.2964C116.178 55.7652 116.292 56.3122 116.292 56.9373C116.292 57.5541 116.178 58.1011 115.952 58.5781C115.726 59.0552 115.409 59.4253 115.002 59.6885C114.595 59.9517 114.132 60.0833 113.614 60.0833C113.162 60.0833 112.763 59.9867 112.418 59.7934C112.072 59.6001 111.809 59.3225 111.628 58.9606V59.4541C111.628 59.635 111.572 59.781 111.461 59.8921C111.35 60.0031 111.2 60.0586 111.011 60.0586C110.822 60.0586 110.67 60.0031 110.555 59.8921C110.44 59.781 110.382 59.635 110.382 59.4541V51.8296C110.382 51.6487 110.442 51.5047 110.561 51.3978C110.68 51.2909 110.834 51.2374 111.023 51.2374C111.204 51.2374 111.35 51.2888 111.461 51.3917C111.572 51.4945 111.628 51.6322 111.628 51.805V54.9633C111.809 54.6014 112.072 54.3218 112.418 54.1244C112.763 53.927 113.162 53.8283 113.614 53.8283ZM113.318 59.0963C113.853 59.0963 114.27 58.9071 114.57 58.5288C114.871 58.1504 115.021 57.6199 115.021 56.9373C115.021 56.2628 114.873 55.7426 114.577 55.3766C114.281 55.0106 113.861 54.8276 113.318 54.8276C112.775 54.8276 112.358 55.0127 112.066 55.3828C111.774 55.7529 111.628 56.2793 111.628 56.962C111.628 57.6446 111.774 58.171 112.066 58.5411C112.358 58.9112 112.775 59.0963 113.318 59.0963ZM124.064 60.0956C122.904 60.0956 122.024 59.7954 121.424 59.195C120.823 58.5946 120.523 57.7104 120.523 56.5425V51.879C120.523 51.6816 120.581 51.5253 120.696 51.4102C120.811 51.295 120.963 51.2374 121.152 51.2374C121.342 51.2374 121.494 51.295 121.609 51.4102C121.724 51.5253 121.782 51.6816 121.782 51.879V56.6288C121.782 57.4267 121.973 58.0312 122.355 58.4424C122.738 58.8537 123.307 59.0593 124.064 59.0593C124.812 59.0593 125.38 58.8537 125.767 58.4424C126.153 58.0312 126.346 57.4267 126.346 56.6288V51.879C126.346 51.6898 126.404 51.5356 126.519 51.4163C126.634 51.2971 126.786 51.2374 126.976 51.2374C127.165 51.2374 127.317 51.295 127.432 51.4102C127.547 51.5253 127.605 51.6816 127.605 51.879V56.5425C127.605 57.7022 127.303 58.5843 126.698 59.1888C126.094 59.7934 125.216 60.0956 124.064 60.0956ZM129.801 60.0586C129.62 60.0586 129.47 60.0093 129.351 59.9106C129.231 59.8119 129.172 59.6638 129.172 59.4664V54.4575C129.172 54.2601 129.231 54.11 129.351 54.0072C129.47 53.9044 129.62 53.8529 129.801 53.8529C129.982 53.8529 130.13 53.9044 130.245 54.0072C130.36 54.11 130.418 54.2601 130.418 54.4575V59.4664C130.418 59.6638 130.36 59.8119 130.245 59.9106C130.13 60.0093 129.982 60.0586 129.801 60.0586ZM129.801 52.6439C129.562 52.6439 129.373 52.5781 129.233 52.4465C129.094 52.3149 129.024 52.1422 129.024 51.9283C129.024 51.7145 129.094 51.5438 129.233 51.4163C129.373 51.2888 129.562 51.2251 129.801 51.2251C130.031 51.2251 130.218 51.2888 130.362 51.4163C130.506 51.5438 130.578 51.7145 130.578 51.9283C130.578 52.1422 130.508 52.3149 130.368 52.4465C130.229 52.5781 130.039 52.6439 129.801 52.6439ZM141.546 59.0346C141.686 59.1662 141.756 59.3102 141.756 59.4664C141.756 59.6227 141.696 59.7584 141.577 59.8736C141.458 59.9887 141.32 60.0463 141.164 60.0463C141.007 60.0463 140.863 59.9805 140.732 59.8489L136.34 55.8886V59.4171C136.34 59.6145 136.284 59.7707 136.173 59.8859C136.062 60.001 135.904 60.0586 135.698 60.0586C135.509 60.0586 135.357 60.001 135.242 59.8859C135.126 59.7707 135.069 59.6145 135.069 59.4171V51.879C135.069 51.6898 135.126 51.5356 135.242 51.4163C135.357 51.2971 135.509 51.2374 135.698 51.2374C135.896 51.2374 136.052 51.295 136.167 51.4102C136.282 51.5253 136.34 51.6816 136.34 51.879V55.2594L140.547 51.4225C140.662 51.3073 140.798 51.2498 140.954 51.2498C141.11 51.2498 141.246 51.3073 141.361 51.4225C141.476 51.5376 141.534 51.6692 141.534 51.8173C141.534 51.9736 141.464 52.1175 141.324 52.2491L137.647 55.5308L141.546 59.0346ZM143.224 60.0586C143.043 60.0586 142.893 60.0093 142.774 59.9106C142.654 59.8119 142.595 59.6638 142.595 59.4664V54.4575C142.595 54.2601 142.654 54.11 142.774 54.0072C142.893 53.9044 143.043 53.8529 143.224 53.8529C143.405 53.8529 143.553 53.9044 143.668 54.0072C143.783 54.11 143.841 54.2601 143.841 54.4575V59.4664C143.841 59.6638 143.783 59.8119 143.668 59.9106C143.553 60.0093 143.405 60.0586 143.224 60.0586ZM143.224 52.6439C142.985 52.6439 142.796 52.5781 142.656 52.4465C142.517 52.3149 142.447 52.1422 142.447 51.9283C142.447 51.7145 142.517 51.5438 142.656 51.4163C142.796 51.2888 142.985 51.2251 143.224 51.2251C143.454 51.2251 143.641 51.2888 143.785 51.4163C143.929 51.5438 144.001 51.7145 144.001 51.9283C144.001 52.1422 143.931 52.3149 143.791 52.4465C143.652 52.5781 143.462 52.6439 143.224 52.6439ZM148.282 59.1086C148.463 59.1251 148.593 59.1724 148.671 59.2505C148.749 59.3287 148.788 59.4376 148.788 59.5775C148.788 59.742 148.724 59.8674 148.597 59.9538C148.469 60.0401 148.282 60.0751 148.035 60.0586L147.702 60.0339C147.036 59.9846 146.539 59.781 146.21 59.4232C145.881 59.0655 145.716 58.537 145.716 57.8379V54.9386H144.976C144.614 54.9386 144.433 54.7782 144.433 54.4575C144.433 54.3094 144.48 54.1922 144.575 54.1059C144.669 54.0195 144.803 53.9763 144.976 53.9763H145.716V52.7056C145.716 52.5164 145.772 52.3684 145.883 52.2614C145.994 52.1545 146.144 52.101 146.333 52.101C146.522 52.101 146.674 52.1545 146.789 52.2614C146.905 52.3684 146.962 52.5164 146.962 52.7056V53.9763H148.183C148.356 53.9763 148.49 54.0195 148.584 54.1059C148.679 54.1922 148.726 54.3094 148.726 54.4575C148.726 54.6137 148.679 54.733 148.584 54.8153C148.49 54.8975 148.356 54.9386 148.183 54.9386H146.962V57.9243C146.962 58.3108 147.042 58.5946 147.203 58.7755C147.363 58.9565 147.608 59.0593 147.937 59.084L148.282 59.1086Z" fill="#081420"/>
</g>
<g filter="url(#filter0_d_13_6)">
<path d="M50.2347 20H57.828H67.0319C75.4458 20 82.2666 26.8208 82.2666 35.2347V51.6413C82.2666 60.0552 75.4458 66.876 67.0319 66.876H50.2347C41.8208 66.876 35 60.0552 35 51.6413V35.2347C35 26.8208 41.8208 20 50.2347 20Z" fill="#6001D3"/>
</g>
<g filter="url(#filter1_d_13_6)">
<path fill-rule="evenodd" clip-rule="evenodd" d="M65.244 48.7414C64.9065 48.7414 64.6329 48.4669 64.6329 48.1294C64.6329 45.7651 66.549 43.849 68.9133 43.849C69.2508 43.849 69.5253 44.1226 69.5253 44.4601V46.4293V48.1294C69.5253 48.4669 69.2508 48.7414 68.9133 48.7414H65.244ZM48.4446 48.7414C48.1989 48.7414 48 48.5416 48 48.2959C48 45.8398 49.9908 43.849 52.4469 43.849H56.2737H62.2317C62.4774 43.849 62.6763 44.0479 62.6763 44.2936C62.6763 46.7497 60.6846 48.7414 58.2285 48.7414H48.4446ZM55.7175 41.8924C51.5586 41.8924 48.4446 41.8924 48.4446 41.8924C48.1989 41.8924 48 41.6935 48 41.4478C48 38.9917 49.9908 37 52.4469 37H69.0798C69.3255 37 69.5253 37.1989 69.5253 37.4446C69.5253 39.9007 67.5336 41.8924 65.0775 41.8924C65.0775 41.8924 59.8755 41.8924 55.7175 41.8924Z" fill="white"/>
</g>
<defs>
<filter id="filter0_d_13_6" x="0" y="0" width="107.267" height="106.876" filterUnits="userSpaceOnUse" color-interpolation-filters="sRGB">
<feFlood flood-opacity="0" result="BackgroundImageFix"/>
<feColorMatrix in="SourceAlpha" type="matrix" values="0 0 0 0 0 0 0 0 0 0 0 0 0 0 0 0 0 0 127 0" result="hardAlpha"/>
<feOffset dx="-5" dy="10"/>
<feGaussianBlur stdDeviation="15"/>
<feColorMatrix type="matrix" values="0 0 0 0 0.376471 0 0 0 0 0.00392157 0 0 0 0 0.827451 0 0 0 0.301961 0"/>
<feBlend mode="normal" in2="BackgroundImageFix" result="effect1_dropShadow_13_6"/>
<feBlend mode="normal" in="SourceGraphic" in2="effect1_dropShadow_13_6" result="shape"/>
</filter>
<filter id="filter1_d_13_6" x="28" y="27" width="61.5253" height="51.7412" filterUnits="userSpaceOnUse" color-interpolation-filters="sRGB">
<feFlood flood-opacity="0" result="BackgroundImageFix"/>
<feColorMatrix in="SourceAlpha" type="matrix" values="0 0 0 0 0 0 0 0 0 0 0 0 0 0 0 0 0 0 127 0" result="hardAlpha"/>
<feOffset dy="10"/>
<feGaussianBlur stdDeviation="10"/>
<feColorMatrix type="matrix" values="0 0 0 0 0 0 0 0 0 0 0 0 0 0 0 0 0 0 0.160784 0"/>
<feBlend mode="normal" in2="BackgroundImageFix" result="effect1_dropShadow_13_6"/>
<feBlend mode="normal" in="SourceGraphic" in2="effect1_dropShadow_13_6" result="shape"/>
</filter>
<clipPath id="clip0_13_6">
<rect width="57.788" height="34.0955" fill="white" transform="translate(91 26)"/>
</clipPath>
</defs>
</svg>
