<svg width="131" height="86" viewBox="0 0 131 86" fill="none" xmlns="http://www.w3.org/2000/svg">
<g filter="url(#filter0_d_4_835)">
<path d="M4.914 54.3H14.4C16.7147 54.3 18.771 54.7547 20.569 55.664C22.367 56.5527 23.762 57.8237 24.754 59.477C25.746 61.1097 26.242 63.0007 26.242 65.15C26.242 67.2993 25.746 69.2007 24.754 70.854C23.762 72.4867 22.367 73.7577 20.569 74.667C18.771 75.5557 16.7147 76 14.4 76H4.914V54.3ZM14.214 72.59C15.8053 72.59 17.2003 72.2903 18.399 71.691C19.6183 71.071 20.5483 70.203 21.189 69.087C21.8503 67.9503 22.181 66.638 22.181 65.15C22.181 63.662 21.8503 62.36 21.189 61.244C20.5483 60.1073 19.6183 59.2393 18.399 58.64C17.2003 58.02 15.8053 57.71 14.214 57.71H8.944V72.59H14.214ZM37.5933 76.217C35.9193 76.217 34.4107 75.8553 33.0673 75.132C31.724 74.4087 30.67 73.4063 29.9053 72.125C29.1613 70.823 28.7893 69.3557 28.7893 67.723C28.7893 66.0903 29.1613 64.6333 29.9053 63.352C30.67 62.0707 31.724 61.0683 33.0673 60.345C34.4107 59.6217 35.9193 59.26 37.5933 59.26C39.288 59.26 40.807 59.6217 42.1503 60.345C43.4937 61.0683 44.5373 62.0707 45.2813 63.352C46.046 64.6333 46.4283 66.0903 46.4283 67.723C46.4283 69.3557 46.046 70.823 45.2813 72.125C44.5373 73.4063 43.4937 74.4087 42.1503 75.132C40.807 75.8553 39.288 76.217 37.5933 76.217ZM37.5933 72.9C39.0193 72.9 40.1973 72.4247 41.1273 71.474C42.0573 70.5233 42.5223 69.273 42.5223 67.723C42.5223 66.173 42.0573 64.9227 41.1273 63.972C40.1973 63.0213 39.0193 62.546 37.5933 62.546C36.1673 62.546 34.9893 63.0213 34.0593 63.972C33.15 64.9227 32.6953 66.173 32.6953 67.723C32.6953 69.273 33.15 70.5233 34.0593 71.474C34.9893 72.4247 36.1673 72.9 37.5933 72.9ZM57.7288 76.217C56.0135 76.217 54.4738 75.8553 53.1098 75.132C51.7458 74.4087 50.6815 73.4063 49.9168 72.125C49.1521 70.823 48.7698 69.3557 48.7698 67.723C48.7698 66.0903 49.1521 64.6333 49.9168 63.352C50.6815 62.0707 51.7355 61.0683 53.0788 60.345C54.4428 59.6217 55.9928 59.26 57.7288 59.26C59.3615 59.26 60.7875 59.5907 62.0068 60.252C63.2468 60.9133 64.1768 61.864 64.7968 63.104L61.8208 64.84C61.3455 64.0753 60.7461 63.507 60.0228 63.135C59.3201 62.7423 58.5451 62.546 57.6978 62.546C56.2511 62.546 55.0525 63.0213 54.1018 63.972C53.1511 64.902 52.6758 66.1523 52.6758 67.723C52.6758 69.2937 53.1408 70.5543 54.0708 71.505C55.0215 72.435 56.2305 72.9 57.6978 72.9C58.5451 72.9 59.3201 72.714 60.0228 72.342C60.7461 71.9493 61.3455 71.3707 61.8208 70.606L64.7968 72.342C64.1561 73.582 63.2158 74.543 61.9758 75.225C60.7565 75.8863 59.3408 76.217 57.7288 76.217ZM78.3094 75.101C77.8547 75.473 77.2967 75.752 76.6354 75.938C75.9947 76.124 75.3127 76.217 74.5894 76.217C72.7707 76.217 71.3654 75.7417 70.3734 74.791C69.3814 73.8403 68.8854 72.4557 68.8854 70.637V62.67H66.1574V59.57H68.8854V55.788H72.7604V59.57H77.1934V62.67H72.7604V70.544C72.7604 71.35 72.9567 71.97 73.3494 72.404C73.7421 72.8173 74.3104 73.024 75.0544 73.024C75.9224 73.024 76.6457 72.7967 77.2244 72.342L78.3094 75.101ZM88.3922 76.217C86.7182 76.217 85.2095 75.8553 83.8662 75.132C82.5228 74.4087 81.4688 73.4063 80.7042 72.125C79.9602 70.823 79.5882 69.3557 79.5882 67.723C79.5882 66.0903 79.9602 64.6333 80.7042 63.352C81.4688 62.0707 82.5228 61.0683 83.8662 60.345C85.2095 59.6217 86.7182 59.26 88.3922 59.26C90.0868 59.26 91.6058 59.6217 92.9492 60.345C94.2925 61.0683 95.3362 62.0707 96.0802 63.352C96.8448 64.6333 97.2272 66.0903 97.2272 67.723C97.2272 69.3557 96.8448 70.823 96.0802 72.125C95.3362 73.4063 94.2925 74.4087 92.9492 75.132C91.6058 75.8553 90.0868 76.217 88.3922 76.217ZM88.3922 72.9C89.8182 72.9 90.9962 72.4247 91.9262 71.474C92.8562 70.5233 93.3212 69.273 93.3212 67.723C93.3212 66.173 92.8562 64.9227 91.9262 63.972C90.9962 63.0213 89.8182 62.546 88.3922 62.546C86.9662 62.546 85.7882 63.0213 84.8582 63.972C83.9488 64.9227 83.4942 66.173 83.4942 67.723C83.4942 69.273 83.9488 70.5233 84.8582 71.474C85.7882 72.4247 86.9662 72.9 88.3922 72.9ZM104.622 61.864C105.738 60.128 107.701 59.26 110.512 59.26V62.949C110.181 62.887 109.881 62.856 109.613 62.856C108.104 62.856 106.926 63.3003 106.079 64.189C105.231 65.057 104.808 66.3177 104.808 67.971V76H100.933V59.446H104.622V61.864ZM118.974 76.217C117.631 76.217 116.319 76.0413 115.037 75.69C113.756 75.3387 112.733 74.8943 111.968 74.357L113.456 71.412C114.2 71.908 115.089 72.311 116.122 72.621C117.176 72.9103 118.21 73.055 119.222 73.055C121.537 73.055 122.694 72.4453 122.694 71.226C122.694 70.6473 122.395 70.2443 121.795 70.017C121.217 69.7897 120.276 69.5727 118.974 69.366C117.61 69.1593 116.494 68.9217 115.626 68.653C114.779 68.3843 114.035 67.9193 113.394 67.258C112.774 66.576 112.464 65.6357 112.464 64.437C112.464 62.8663 113.115 61.616 114.417 60.686C115.74 59.7353 117.517 59.26 119.749 59.26C120.886 59.26 122.023 59.3943 123.159 59.663C124.296 59.911 125.226 60.252 125.949 60.686L124.461 63.631C123.056 62.8043 121.475 62.391 119.718 62.391C118.582 62.391 117.714 62.5667 117.114 62.918C116.536 63.2487 116.246 63.693 116.246 64.251C116.246 64.871 116.556 65.3153 117.176 65.584C117.817 65.832 118.799 66.0697 120.121 66.297C121.444 66.5037 122.529 66.7413 123.376 67.01C124.224 67.2787 124.947 67.7333 125.546 68.374C126.166 69.0147 126.476 69.924 126.476 71.102C126.476 72.652 125.805 73.892 124.461 74.822C123.118 75.752 121.289 76.217 118.974 76.217Z" fill="white"/>
<path d="M67.8173 7.59402C67.8173 7.19538 67.4785 6.87646 67.0998 6.87646H63.1732C62.7746 6.87646 62.4557 7.21531 62.4557 7.59402V14.1117H55.8184C55.4197 14.1117 55.1008 14.4506 55.1008 14.8293V18.6761C55.1008 19.0747 55.4397 19.3936 55.8184 19.3936H62.4557V25.9113C62.4557 26.31 62.7945 26.6289 63.1732 26.6289H67.0998C67.2991 26.6289 67.4785 26.5492 67.5981 26.4296C67.7376 26.31 67.8173 26.1107 67.8173 25.9113V19.3936H74.4546C74.8532 19.3936 75.1722 19.0548 75.1722 18.6761V14.8293C75.1722 14.6299 75.0924 14.4506 74.9529 14.331C74.8134 14.1914 74.634 14.1117 74.4347 14.1117H67.7974V7.59402H67.8173Z" fill="white"/>
<path d="M58.9082 28.9806C64.1104 30.1565 72.7807 31.0136 77.5444 25.3928C84.2415 17.5198 76.0894 9.08862 76.0894 9.08862C78.84 14.0915 78.2221 20.2106 75.2523 23.9577C72.6412 27.2664 64.6884 29.5387 58.9082 28.9806Z" fill="white"/>
<path d="M58.9077 28.981C56.3565 28.4029 54.6423 27.7651 54.6423 27.7651C55.7784 28.4428 57.2534 28.8215 58.9077 28.981Z" fill="white"/>
<path d="M85.8944 0C89.3824 8.05245 87.8277 17.7592 81.2502 24.3367C73.9751 31.6119 62.8532 32.748 54.4021 27.7052C54.4021 27.7052 74.5332 41.219 87.4092 25.433C88.4058 24.2172 89.203 23.0013 89.8209 21.7855C88.7247 23.7587 87.7679 24.9945 87.7679 24.9945C94.0465 14.5303 89.1233 4.68397 85.8944 0Z" fill="white"/>
<path d="M69.9098 4.5445C64.7076 3.36852 56.0373 2.51146 51.2736 8.13223C44.5765 16.0053 52.7286 24.4364 52.7286 24.4364C49.978 19.4336 50.5959 13.3145 53.5658 9.56731C56.1569 6.27856 64.1097 3.98641 69.9098 4.5445Z" fill="white"/>
<path d="M69.9097 4.54443C72.4609 5.12246 74.1751 5.76027 74.1751 5.76027C73.039 5.10252 71.564 4.70389 69.9097 4.54443Z" fill="white"/>
<path d="M42.9024 33.5453C39.4143 25.4929 40.969 15.7861 47.5465 9.20858C54.8216 1.93347 65.9435 0.797362 74.3946 5.84011C74.3946 5.84011 54.2635 -7.67366 41.3875 8.11233C40.391 9.32817 39.5937 10.544 38.9758 11.7598C40.072 9.7866 41.0288 8.55083 41.0288 8.55083C34.7503 18.9951 39.6734 28.8414 42.9024 33.5453Z" fill="white"/>
</g>
<defs>
<filter id="filter0_d_4_835" x="0.914062" y="0" width="129.562" height="84.217" filterUnits="userSpaceOnUse" color-interpolation-filters="sRGB">
<feFlood flood-opacity="0" result="BackgroundImageFix"/>
<feColorMatrix in="SourceAlpha" type="matrix" values="0 0 0 0 0 0 0 0 0 0 0 0 0 0 0 0 0 0 127 0" result="hardAlpha"/>
<feOffset dy="4"/>
<feGaussianBlur stdDeviation="2"/>
<feComposite in2="hardAlpha" operator="out"/>
<feColorMatrix type="matrix" values="0 0 0 0 0 0 0 0 0 0 0 0 0 0 0 0 0 0 0.25 0"/>
<feBlend mode="normal" in2="BackgroundImageFix" result="effect1_dropShadow_4_835"/>
<feBlend mode="normal" in="SourceGraphic" in2="effect1_dropShadow_4_835" result="shape"/>
</filter>
</defs>
</svg>
