<svg width="189" height="86" viewBox="0 0 189 86" fill="none" xmlns="http://www.w3.org/2000/svg">
<path d="M2.914 54.3H12.4C14.7147 54.3 16.771 54.7547 18.569 55.664C20.367 56.5527 21.762 57.8237 22.754 59.477C23.746 61.1097 24.242 63.0007 24.242 65.15C24.242 67.2993 23.746 69.2007 22.754 70.854C21.762 72.4867 20.367 73.7577 18.569 74.667C16.771 75.5557 14.7147 76 12.4 76H2.914V54.3ZM12.214 72.59C13.8053 72.59 15.2003 72.2903 16.399 71.691C17.6183 71.071 18.5483 70.203 19.189 69.087C19.8503 67.9503 20.181 66.638 20.181 65.15C20.181 63.662 19.8503 62.36 19.189 61.244C18.5483 60.1073 17.6183 59.2393 16.399 58.64C15.2003 58.02 13.8053 57.71 12.214 57.71H6.944V72.59H12.214ZM35.5933 76.217C33.9193 76.217 32.4107 75.8553 31.0673 75.132C29.724 74.4087 28.67 73.4063 27.9053 72.125C27.1613 70.823 26.7893 69.3557 26.7893 67.723C26.7893 66.0903 27.1613 64.6333 27.9053 63.352C28.67 62.0707 29.724 61.0683 31.0673 60.345C32.4107 59.6217 33.9193 59.26 35.5933 59.26C37.288 59.26 38.807 59.6217 40.1503 60.345C41.4937 61.0683 42.5373 62.0707 43.2813 63.352C44.046 64.6333 44.4283 66.0903 44.4283 67.723C44.4283 69.3557 44.046 70.823 43.2813 72.125C42.5373 73.4063 41.4937 74.4087 40.1503 75.132C38.807 75.8553 37.288 76.217 35.5933 76.217ZM35.5933 72.9C37.0193 72.9 38.1973 72.4247 39.1273 71.474C40.0573 70.5233 40.5223 69.273 40.5223 67.723C40.5223 66.173 40.0573 64.9227 39.1273 63.972C38.1973 63.0213 37.0193 62.546 35.5933 62.546C34.1673 62.546 32.9893 63.0213 32.0593 63.972C31.15 64.9227 30.6953 66.173 30.6953 67.723C30.6953 69.273 31.15 70.5233 32.0593 71.474C32.9893 72.4247 34.1673 72.9 35.5933 72.9ZM55.7288 76.217C54.0135 76.217 52.4738 75.8553 51.1098 75.132C49.7458 74.4087 48.6815 73.4063 47.9168 72.125C47.1521 70.823 46.7698 69.3557 46.7698 67.723C46.7698 66.0903 47.1521 64.6333 47.9168 63.352C48.6815 62.0707 49.7355 61.0683 51.0788 60.345C52.4428 59.6217 53.9928 59.26 55.7288 59.26C57.3615 59.26 58.7875 59.5907 60.0068 60.252C61.2468 60.9133 62.1768 61.864 62.7968 63.104L59.8208 64.84C59.3455 64.0753 58.7461 63.507 58.0228 63.135C57.3201 62.7423 56.5451 62.546 55.6978 62.546C54.2511 62.546 53.0525 63.0213 52.1018 63.972C51.1511 64.902 50.6758 66.1523 50.6758 67.723C50.6758 69.2937 51.1408 70.5543 52.0708 71.505C53.0215 72.435 54.2305 72.9 55.6978 72.9C56.5451 72.9 57.3201 72.714 58.0228 72.342C58.7461 71.9493 59.3455 71.3707 59.8208 70.606L62.7968 72.342C62.1561 73.582 61.2158 74.543 59.9758 75.225C58.7565 75.8863 57.3408 76.217 55.7288 76.217ZM86.4515 76L86.4205 61.616L79.2905 73.52H77.4925L70.3625 61.802V76H66.5185V54.3H69.8355L78.4535 68.684L86.9165 54.3H90.2335L90.2645 76H86.4515ZM111.316 67.816C111.316 68.0847 111.295 68.467 111.254 68.963H98.2649C98.4922 70.1823 99.0812 71.1537 100.032 71.877C101.003 72.5797 102.202 72.931 103.628 72.931C105.447 72.931 106.945 72.3317 108.123 71.133L110.2 73.52C109.456 74.4087 108.516 75.0803 107.379 75.535C106.242 75.9897 104.961 76.217 103.535 76.217C101.716 76.217 100.115 75.8553 98.7299 75.132C97.3452 74.4087 96.2706 73.4063 95.5059 72.125C94.7619 70.823 94.3899 69.3557 94.3899 67.723C94.3899 66.111 94.7516 64.6643 95.4749 63.383C96.2189 62.081 97.2419 61.0683 98.5439 60.345C99.8459 59.6217 101.313 59.26 102.946 59.26C104.558 59.26 105.994 59.6217 107.255 60.345C108.536 61.0477 109.528 62.05 110.231 63.352C110.954 64.6333 111.316 66.1213 111.316 67.816ZM102.946 62.36C101.706 62.36 100.652 62.732 99.7839 63.476C98.9366 64.1993 98.4199 65.1707 98.2339 66.39H107.627C107.462 65.1913 106.955 64.22 106.108 63.476C105.261 62.732 104.207 62.36 102.946 62.36ZM131.251 52.998V76H127.531V73.861C126.89 74.6463 126.095 75.2353 125.144 75.628C124.214 76.0207 123.181 76.217 122.044 76.217C120.453 76.217 119.016 75.8657 117.735 75.163C116.474 74.4603 115.482 73.4683 114.759 72.187C114.036 70.885 113.674 69.397 113.674 67.723C113.674 66.049 114.036 64.5713 114.759 63.29C115.482 62.0087 116.474 61.0167 117.735 60.314C119.016 59.6113 120.453 59.26 122.044 59.26C123.139 59.26 124.142 59.446 125.051 59.818C125.96 60.19 126.735 60.748 127.376 61.492V52.998H131.251ZM122.509 72.9C123.439 72.9 124.276 72.6933 125.02 72.28C125.764 71.846 126.353 71.2363 126.787 70.451C127.221 69.6657 127.438 68.7563 127.438 67.723C127.438 66.6897 127.221 65.7803 126.787 64.995C126.353 64.2097 125.764 63.6103 125.02 63.197C124.276 62.763 123.439 62.546 122.509 62.546C121.579 62.546 120.742 62.763 119.998 63.197C119.254 63.6103 118.665 64.2097 118.231 64.995C117.797 65.7803 117.58 66.6897 117.58 67.723C117.58 68.7563 117.797 69.6657 118.231 70.451C118.665 71.2363 119.254 71.846 119.998 72.28C120.742 72.6933 121.579 72.9 122.509 72.9ZM136.32 59.446H140.195V76H136.32V59.446ZM138.273 56.718C137.571 56.718 136.982 56.501 136.506 56.067C136.031 55.6123 135.793 55.0543 135.793 54.393C135.793 53.7317 136.031 53.184 136.506 52.75C136.982 52.2953 137.571 52.068 138.273 52.068C138.976 52.068 139.565 52.285 140.04 52.719C140.516 53.1323 140.753 53.6593 140.753 54.3C140.753 54.982 140.516 55.5607 140.04 56.036C139.586 56.4907 138.997 56.718 138.273 56.718ZM152.876 76.217C151.161 76.217 149.621 75.8553 148.257 75.132C146.893 74.4087 145.829 73.4063 145.064 72.125C144.3 70.823 143.917 69.3557 143.917 67.723C143.917 66.0903 144.3 64.6333 145.064 63.352C145.829 62.0707 146.883 61.0683 148.226 60.345C149.59 59.6217 151.14 59.26 152.876 59.26C154.509 59.26 155.935 59.5907 157.154 60.252C158.394 60.9133 159.324 61.864 159.944 63.104L156.968 64.84C156.493 64.0753 155.894 63.507 155.17 63.135C154.468 62.7423 153.693 62.546 152.845 62.546C151.399 62.546 150.2 63.0213 149.249 63.972C148.299 64.902 147.823 66.1523 147.823 67.723C147.823 69.2937 148.288 70.5543 149.218 71.505C150.169 72.435 151.378 72.9 152.845 72.9C153.693 72.9 154.468 72.714 155.17 72.342C155.894 71.9493 156.493 71.3707 156.968 70.606L159.944 72.342C159.304 73.582 158.363 74.543 157.123 75.225C155.904 75.8863 154.488 76.217 152.876 76.217ZM169.618 59.26C172.057 59.26 173.917 59.849 175.198 61.027C176.5 62.1843 177.151 63.941 177.151 66.297V76H173.493V73.985C173.018 74.7083 172.336 75.2663 171.447 75.659C170.579 76.031 169.525 76.217 168.285 76.217C167.045 76.217 165.96 76.0103 165.03 75.597C164.1 75.163 163.377 74.574 162.86 73.83C162.364 73.0653 162.116 72.2077 162.116 71.257C162.116 69.769 162.664 68.5807 163.759 67.692C164.875 66.7827 166.621 66.328 168.998 66.328H173.276V66.08C173.276 64.9227 172.925 64.034 172.222 63.414C171.54 62.794 170.517 62.484 169.153 62.484C168.223 62.484 167.303 62.6287 166.394 62.918C165.505 63.2073 164.751 63.6103 164.131 64.127L162.612 61.306C163.48 60.6447 164.524 60.1383 165.743 59.787C166.962 59.4357 168.254 59.26 169.618 59.26ZM169.091 73.396C170.062 73.396 170.92 73.179 171.664 72.745C172.429 72.2903 172.966 71.6497 173.276 70.823V68.901H169.277C167.045 68.901 165.929 69.6347 165.929 71.102C165.929 71.8047 166.208 72.3627 166.766 72.776C167.324 73.1893 168.099 73.396 169.091 73.396ZM182.124 52.998H185.999V76H182.124V52.998Z" fill="white"/>
<path d="M65.8173 7.59402C65.8173 7.19538 65.4785 6.87646 65.0998 6.87646H61.1732C60.7746 6.87646 60.4557 7.21531 60.4557 7.59402V14.1117H53.8184C53.4197 14.1117 53.1008 14.4506 53.1008 14.8293V18.6761C53.1008 19.0747 53.4397 19.3936 53.8184 19.3936H60.4557V25.9113C60.4557 26.31 60.7945 26.6289 61.1732 26.6289H65.0998C65.2991 26.6289 65.4785 26.5492 65.5981 26.4296C65.7376 26.31 65.8173 26.1107 65.8173 25.9113V19.3936H72.4546C72.8532 19.3936 73.1722 19.0548 73.1722 18.6761V14.8293C73.1722 14.6299 73.0924 14.4506 72.9529 14.331C72.8134 14.1914 72.634 14.1117 72.4347 14.1117H65.7974V7.59402H65.8173Z" fill="white"/>
<path d="M56.9082 28.9806C62.1104 30.1565 70.7807 31.0136 75.5444 25.3928C82.2415 17.5198 74.0894 9.08862 74.0894 9.08862C76.84 14.0915 76.2221 20.2106 73.2523 23.9577C70.6412 27.2664 62.6884 29.5387 56.9082 28.9806Z" fill="#4B7EFF"/>
<path d="M56.9077 28.981C54.3565 28.4029 52.6423 27.7651 52.6423 27.7651C53.7784 28.4428 55.2534 28.8215 56.9077 28.981Z" fill="#4B7EFF"/>
<path d="M83.8944 0C87.3824 8.05245 85.8277 17.7592 79.2502 24.3367C71.9751 31.6119 60.8532 32.748 52.4021 27.7052C52.4021 27.7052 72.5332 41.219 85.4092 25.433C86.4058 24.2172 87.203 23.0013 87.8209 21.7855C86.7247 23.7587 85.7679 24.9945 85.7679 24.9945C92.0465 14.5303 87.1233 4.68397 83.8944 0Z" fill="#4B7EFF"/>
<path d="M67.9098 4.5445C62.7076 3.36852 54.0373 2.51146 49.2736 8.13223C42.5765 16.0053 50.7286 24.4364 50.7286 24.4364C47.978 19.4336 48.5959 13.3145 51.5658 9.56731C54.1569 6.27856 62.1097 3.98641 67.9098 4.5445Z" fill="#4B7EFF"/>
<path d="M67.9097 4.54443C70.4609 5.12246 72.1751 5.76027 72.1751 5.76027C71.039 5.10252 69.564 4.70389 67.9097 4.54443Z" fill="#4B7EFF"/>
<path d="M40.9024 33.5453C37.4143 25.4929 38.969 15.7861 45.5465 9.20858C52.8216 1.93347 63.9435 0.797362 72.3946 5.84011C72.3946 5.84011 52.2635 -7.67366 39.3875 8.11233C38.391 9.32817 37.5937 10.544 36.9758 11.7598C38.072 9.7866 39.0288 8.55083 39.0288 8.55083C32.7503 18.9951 37.6734 28.8414 40.9024 33.5453Z" fill="#4B7EFF"/>
</svg>
