<svg width="36" height="24" viewBox="0 0 36 24" fill="none" xmlns="http://www.w3.org/2000/svg">
<path d="M3.77485 7.70389C4.21805 7.95673 5.55401 8.70766 7.7828 9.95631C10.0117 11.205 11.7191 12.1664 12.9053 12.8406C13.0356 12.9145 13.3124 13.0752 13.736 13.3228C14.1596 13.5706 14.5116 13.7709 14.7917 13.9236C15.0719 14.0763 15.4108 14.2476 15.8085 14.4372C16.2061 14.6267 16.5809 14.7692 16.9328 14.8635C17.2848 14.9586 17.6106 15.0057 17.9103 15.0057H17.93H17.9497C18.2494 15.0057 18.5754 14.9586 18.9274 14.8635C19.2792 14.7692 19.6543 14.6265 20.0515 14.4372C20.449 14.2474 20.7878 14.0763 21.0681 13.9236C21.3484 13.7709 21.7001 13.5706 22.1239 13.3228C22.5473 13.075 22.8245 12.9145 22.9549 12.8406C24.1538 12.1664 27.2041 10.454 32.1047 7.70356C33.0562 7.16638 33.8511 6.5182 34.4896 5.75946C35.1287 5.00104 35.4479 4.20543 35.4479 3.37306C35.4479 2.67748 35.1381 2.08206 34.5189 1.58685C33.8998 1.09152 33.1666 0.843994 32.3196 0.843994H3.54017C2.53661 0.843994 1.7643 1.11793 1.22338 1.66579C0.682534 2.21377 0.412109 2.89872 0.412109 3.72057C0.412109 4.38442 0.770667 5.1038 1.48744 5.87826C2.20414 6.65278 2.96686 7.26138 3.77485 7.70389Z" fill="white"/>
<path d="M33.4925 9.39511C29.2178 11.7342 25.9718 13.5521 23.7563 14.8484C23.0134 15.2908 22.4107 15.6361 21.9479 15.8836C21.485 16.1312 20.8695 16.3841 20.1003 16.6422C19.3314 16.9006 18.6148 17.0294 17.95 17.0294H17.9301H17.9104C17.2457 17.0294 16.5287 16.9006 15.7598 16.6422C14.9909 16.3841 14.375 16.1312 13.9122 15.8836C13.4497 15.6361 12.8468 15.2908 12.1039 14.8484C10.3442 13.8052 7.10527 11.9872 2.38698 9.39511C1.64385 8.99493 0.985623 8.53627 0.412109 8.02002V20.5699C0.412109 21.2657 0.71828 21.8608 1.33096 22.3561C1.94351 22.8516 2.68007 23.0992 3.54038 23.0992H32.3199C33.18 23.0992 33.9165 22.8516 34.5291 22.3561C35.1419 21.8607 35.4479 21.2658 35.4479 20.5699V8.02002C34.8874 8.52559 34.2358 8.98427 33.4925 9.39511Z" fill="white"/>
</svg>
