<svg width="414" height="422" viewBox="0 0 414 422" fill="none" xmlns="http://www.w3.org/2000/svg">
<g filter="url(#filter0_d_17_2)">
<rect x="34" y="78.1235" width="181" height="197" rx="20" transform="rotate(-24 34 78.1235)" fill="white"/>
</g>
<mask id="mask0_17_2" style="mask-type:alpha" maskUnits="userSpaceOnUse" x="40" y="11" width="234" height="242">
<rect x="34" y="78.6191" width="181" height="197" rx="20" transform="rotate(-24 34 78.6191)" fill="white"/>
</mask>
<g mask="url(#mask0_17_2)">
<g filter="url(#filter1_d_17_2)">
<rect x="34" y="78.6191" width="181" height="197" rx="20" transform="rotate(-24 34 78.6191)" fill="white"/>
</g>
<path d="M171.966 -143.076C175.106 -140.799 125.419 -101.96 138.286 -46.9871C151.154 7.98573 186.183 -13.4837 204.079 19.6304C221.976 52.7444 193.099 82.1401 209.51 112.206C225.92 142.272 268.958 146.569 281.816 176.6C294.675 206.632 258.857 229.214 276.799 261.583C294.741 293.952 321.579 276.695 342.009 315.814C362.438 354.933 332.217 380.415 361.685 417.27C391.153 454.124 471.575 445.888 471.575 445.888" stroke="#ABAFC7" stroke-opacity="0.2" stroke-width="2"/>
<path d="M132.579 -121.195C135.719 -118.918 86.032 -80.0792 98.8999 -25.1062C111.767 29.8666 146.796 8.39719 164.693 41.5113C182.589 74.6253 153.713 104.021 170.123 134.087C186.533 164.153 229.571 168.449 242.43 198.481C255.289 228.513 219.47 251.095 237.413 283.464C255.355 315.833 282.193 298.576 302.622 337.695C323.051 376.814 292.831 402.296 322.299 439.151C351.767 476.005 432.188 467.769 432.188 467.769" stroke="#ABAFC7" stroke-opacity="0.2" stroke-width="2"/>
<path d="M95.3796 -77.4336C98.5198 -75.1563 48.8326 -36.3174 61.7004 18.6555C74.568 73.6283 109.597 52.1589 127.493 85.273C145.39 118.387 116.513 147.783 132.924 177.849C149.334 207.914 192.372 212.211 205.23 242.243C218.089 272.274 182.271 294.857 200.213 327.226C218.155 359.594 244.993 342.337 265.423 381.457C285.852 420.576 255.631 446.058 285.099 482.912C314.567 519.767 394.989 511.531 394.989 511.531" stroke="#ABAFC7" stroke-opacity="0.2" stroke-width="2"/>
<path d="M55.9929 -35.8575C59.133 -33.5802 9.44586 5.25873 22.3137 60.2317C35.1813 115.204 70.2102 93.7351 88.1066 126.849C106.003 159.963 77.1267 189.359 93.537 219.425C109.947 249.491 152.985 253.787 165.844 283.819C178.702 313.85 142.884 336.433 160.826 368.802C178.769 401.171 205.607 383.914 226.036 423.033C246.465 462.152 216.244 487.634 245.713 524.488C275.181 561.343 355.602 553.107 355.602 553.107" stroke="#ABAFC7" stroke-opacity="0.2" stroke-width="2"/>
<path d="M214.633 -175.898C217.774 -173.621 168.086 -134.782 180.954 -79.8093C193.822 -24.8365 228.851 -46.3059 246.747 -13.1918C264.644 19.9222 235.767 49.3179 252.178 79.3838C268.588 109.45 311.626 113.746 324.484 143.778C337.343 173.809 301.525 196.392 319.467 228.761C337.409 261.13 364.247 243.873 384.677 282.992C405.106 322.111 374.885 347.593 404.353 384.447C433.821 421.302 514.242 413.066 514.242 413.066" stroke="#ABAFC7" stroke-opacity="0.2" stroke-width="2"/>
</g>
<path d="M118.946 161.466C118.093 161.846 117.277 161.899 116.499 161.625C115.707 161.321 115.134 160.773 114.782 159.981L104.532 136.96L105.619 137.68L103.083 141.327C102.748 141.804 102.322 142.158 101.804 142.389C101.013 142.741 100.229 142.743 99.4538 142.395C98.665 142.017 98.1214 141.492 97.8231 140.822C97.3622 139.787 97.4817 138.785 98.1816 137.817L103.249 130.635C103.644 130.13 104.238 129.702 105.03 129.349C105.821 128.997 106.583 128.986 107.314 129.317C108.062 129.605 108.613 130.144 108.965 130.936L120.72 157.337C121.072 158.129 121.081 158.928 120.747 159.734C120.429 160.495 119.829 161.073 118.946 161.466ZM127.19 150.078C127.464 149.956 127.773 149.873 128.118 149.829C128.494 149.771 128.941 149.791 129.459 149.889C130.153 150.054 130.918 150.133 131.754 150.126C132.62 150.105 133.525 149.885 134.469 149.464C135.413 149.044 136.195 148.422 136.813 147.6C137.449 146.733 137.851 145.751 138.02 144.654C138.175 143.527 137.981 142.355 137.439 141.137C136.924 139.979 136.253 139.129 135.427 138.584C134.631 138.026 133.749 137.726 132.781 137.682C131.844 137.625 130.933 137.794 130.05 138.187C129.38 138.485 128.844 138.797 128.441 139.122C128.069 139.434 127.704 139.76 127.345 140.102C127.004 140.4 126.559 140.672 126.011 140.916C125.31 141.227 124.654 141.228 124.041 140.917C123.459 140.592 123.018 140.095 122.72 139.425C122.53 138.999 122.437 138.584 122.44 138.182C122.474 137.765 122.57 137.285 122.729 136.74L126.863 124.39L128.564 124.892L117.328 129.895C116.597 130.22 115.879 130.248 115.175 129.977C114.471 129.707 113.956 129.206 113.631 128.476C113.319 127.775 113.305 127.088 113.589 126.414C113.859 125.71 114.36 125.195 115.09 124.87L129.068 118.647C130.012 118.227 130.827 118.174 131.515 118.488C132.232 118.789 132.767 119.335 133.12 120.127C133.296 120.523 133.359 120.951 133.309 121.411C133.289 121.858 133.186 122.323 133 122.807L128.881 135.314L126.956 134.31C127.223 134.009 127.619 133.668 128.143 133.289C128.698 132.896 129.173 132.611 129.569 132.435C131.366 131.635 133.129 131.416 134.859 131.777C136.605 132.094 138.161 132.842 139.526 134.023C140.907 135.159 141.978 136.58 142.737 138.285C143.74 140.538 144.105 142.711 143.833 144.803C143.56 146.895 142.707 148.789 141.273 150.485C139.839 152.182 137.904 153.573 135.468 154.657C134.341 155.159 133.168 155.517 131.95 155.731C130.732 155.945 129.625 156 128.63 155.895C127.797 155.828 127.164 155.636 126.731 155.318C126.314 154.956 126.018 154.577 125.842 154.181C125.53 153.481 125.482 152.718 125.698 151.892C125.931 151.022 126.428 150.417 127.19 150.078ZM163.489 142.181C160.87 143.347 158.342 143.652 155.905 143.095C153.485 142.494 151.253 141.171 149.211 139.124C147.155 137.048 145.409 134.395 143.972 131.167C142.521 127.909 141.719 124.837 141.564 121.95C141.41 119.063 141.926 116.534 143.113 114.364C144.316 112.15 146.228 110.46 148.846 109.294C151.465 108.128 153.985 107.845 156.405 108.446C158.842 109.003 161.082 110.304 163.124 112.351C165.166 114.397 166.913 117.049 168.363 120.308C169.801 123.535 170.603 126.608 170.771 129.525C170.925 132.412 170.4 134.963 169.197 137.177C168.01 139.347 166.108 141.015 163.489 142.181ZM161.048 136.7C162.327 136.131 163.247 135.247 163.808 134.048C164.386 132.806 164.575 131.262 164.374 129.418C164.16 127.543 163.51 125.387 162.425 122.951C161.327 120.485 160.16 118.56 158.924 117.176C157.688 115.793 156.421 114.915 155.125 114.544C153.845 114.129 152.566 114.206 151.287 114.775C150.038 115.331 149.125 116.23 148.547 117.472C147.956 118.685 147.76 120.213 147.961 122.057C148.162 123.902 148.812 126.057 149.91 128.524C150.994 130.96 152.162 132.885 153.411 134.299C154.648 135.682 155.921 136.575 157.231 136.977C158.527 137.348 159.8 137.256 161.048 136.7Z" fill="#081420"/>
<path d="M179.474 125.609C180.146 125.31 180.733 125.224 181.233 125.351C181.729 125.469 182.159 125.739 182.522 126.161C182.895 126.579 183.211 127.08 183.472 127.665L185.196 131.538C185.292 131.752 185.299 131.965 185.218 132.176C185.142 132.374 185.002 132.518 184.797 132.609C184.583 132.704 184.377 132.714 184.18 132.639C183.979 132.553 183.83 132.403 183.735 132.189L182.01 128.315C181.858 127.974 181.671 127.684 181.447 127.445C181.234 127.201 180.973 127.049 180.666 126.987C180.368 126.922 180.014 126.98 179.605 127.162C179.225 127.331 178.921 127.566 178.692 127.866C178.474 128.162 178.345 128.488 178.305 128.844C178.275 129.196 178.336 129.543 178.487 129.884L180.212 133.757C180.307 133.972 180.315 134.184 180.234 134.396C180.158 134.593 180.018 134.737 179.813 134.828C179.599 134.923 179.393 134.933 179.196 134.858C178.994 134.772 178.846 134.622 178.75 134.408L174.598 125.083C174.503 124.868 174.493 124.662 174.569 124.465C174.64 124.258 174.783 124.107 174.997 124.012C175.202 123.921 175.405 123.918 175.607 124.003C175.813 124.074 175.965 124.217 176.06 124.432L177.837 128.422L177.639 128.685C177.611 128.441 177.626 128.172 177.682 127.878C177.748 127.58 177.856 127.287 178.008 126.997C178.169 126.704 178.372 126.438 178.617 126.201C178.857 125.954 179.143 125.756 179.474 125.609ZM188.292 131.053C188.078 131.148 187.872 131.158 187.675 131.083C187.473 130.997 187.325 130.847 187.229 130.633L184.47 124.435C184.374 124.221 184.365 124.015 184.44 123.818C184.512 123.611 184.654 123.46 184.869 123.365C185.073 123.274 185.277 123.271 185.478 123.356C185.685 123.427 185.836 123.57 185.932 123.785L186.66 125.422L186.234 124.858C186.191 124.551 186.195 124.245 186.247 123.942C186.308 123.634 186.412 123.343 186.558 123.068C186.704 122.793 186.892 122.546 187.121 122.327C187.361 122.103 187.631 121.925 187.933 121.79C188.187 121.677 188.436 121.648 188.682 121.702C188.928 121.756 189.097 121.885 189.188 122.09C189.305 122.353 189.323 122.578 189.243 122.766C189.159 122.943 189.034 123.069 188.868 123.143C188.722 123.208 188.568 123.241 188.405 123.244C188.239 123.236 188.063 123.274 187.877 123.356C187.673 123.447 187.487 123.594 187.321 123.797C187.154 123.999 187.031 124.247 186.951 124.539C186.866 124.822 186.834 125.129 186.852 125.459C186.881 125.785 186.973 126.123 187.129 126.474L188.691 129.982C188.786 130.197 188.793 130.409 188.712 130.621C188.637 130.818 188.497 130.962 188.292 131.053Z" fill="#081420"/>
<path d="M135.457 195.343C135.183 195.465 134.914 195.476 134.65 195.374C134.386 195.273 134.197 195.093 134.081 194.834L127.797 180.72L129.739 179.855L136.023 193.97C136.138 194.228 136.145 194.49 136.043 194.754C135.942 195.018 135.747 195.214 135.457 195.343ZM123.814 183.451C123.555 183.566 123.3 183.588 123.05 183.517C122.808 183.425 122.629 183.249 122.514 182.99C122.399 182.731 122.391 182.488 122.491 182.261C122.599 182.013 122.782 181.83 123.041 181.715L133.661 176.987C133.92 176.872 134.178 176.857 134.435 176.943C134.686 177.014 134.868 177.179 134.984 177.438C135.106 177.712 135.109 177.966 134.994 178.199C134.879 178.433 134.693 178.607 134.434 178.723L123.814 183.451ZM145.485 189.757C145.601 190.015 145.607 190.277 145.506 190.541C145.42 190.798 145.247 190.984 144.989 191.1C144.715 191.222 144.453 191.229 144.204 191.12C143.955 191.012 143.773 190.829 143.658 190.57L139.143 180.43C139.028 180.171 139.017 179.92 139.11 179.678C139.211 179.414 139.391 179.225 139.65 179.109C139.909 178.994 140.163 178.991 140.412 179.099C140.669 179.185 140.855 179.357 140.971 179.616L145.485 189.757ZM138.969 177.579C138.588 177.749 138.273 177.798 138.022 177.727C137.772 177.656 137.575 177.461 137.433 177.141L137.291 176.821C137.148 176.502 137.142 176.222 137.272 175.981C137.402 175.741 137.65 175.539 138.016 175.377C138.381 175.214 138.689 175.168 138.939 175.239C139.19 175.31 139.386 175.505 139.529 175.825L139.671 176.145C139.813 176.464 139.82 176.744 139.689 176.985C139.575 177.218 139.334 177.416 138.969 177.579ZM149.487 174.73C150.522 174.269 151.478 174.162 152.355 174.411C153.24 174.637 154.003 175.182 154.643 176.046L154.301 176.199L154.277 175.717C154.27 175.209 154.399 174.659 154.665 174.066C154.93 173.474 155.294 172.92 155.758 172.403C156.221 171.887 156.765 171.489 157.389 171.212C158.394 170.764 159.284 170.632 160.059 170.816C160.828 170.985 161.496 171.381 162.065 172.003C162.643 172.603 163.131 173.353 163.531 174.251L166.307 180.486C166.423 180.745 166.43 181.006 166.328 181.27C166.242 181.528 166.07 181.714 165.811 181.829C165.537 181.951 165.275 181.958 165.026 181.85C164.778 181.742 164.595 181.558 164.48 181.299L161.725 175.11C161.46 174.516 161.132 174.024 160.739 173.633C160.354 173.221 159.903 172.966 159.385 172.868C158.876 172.748 158.286 172.837 157.616 173.135C156.992 173.413 156.485 173.812 156.097 174.332C155.701 174.837 155.459 175.4 155.372 176.023C155.277 176.631 155.362 177.231 155.627 177.825L158.382 184.014C158.498 184.273 158.512 184.531 158.426 184.789C158.34 185.046 158.16 185.236 157.886 185.358C157.627 185.473 157.365 185.48 157.101 185.378C156.853 185.27 156.67 185.087 156.555 184.828L153.769 178.57C153.512 177.992 153.197 177.511 152.826 177.129C152.464 176.725 152.031 176.47 151.529 176.366C151.019 176.246 150.43 176.335 149.76 176.633C149.151 176.905 148.659 177.297 148.286 177.81C147.905 178.307 147.668 178.86 147.574 179.468C147.472 180.06 147.551 180.645 147.808 181.224L150.594 187.482C150.71 187.741 150.717 188.002 150.615 188.266C150.529 188.523 150.357 188.71 150.098 188.825C149.839 188.94 149.577 188.947 149.313 188.846C149.065 188.738 148.883 188.554 148.767 188.295L144.334 178.338C144.219 178.079 144.207 177.828 144.3 177.586C144.402 177.322 144.582 177.133 144.841 177.017C145.115 176.895 145.376 176.888 145.625 176.997C145.867 177.089 146.046 177.265 146.161 177.524L146.934 179.26L146.675 180.032C146.56 179.609 146.536 179.145 146.603 178.641C146.686 178.13 146.851 177.619 147.097 177.107C147.344 176.596 147.667 176.133 148.066 175.718C148.465 175.303 148.939 174.974 149.487 174.73ZM175.551 177.766C174.333 178.309 173.152 178.524 172.008 178.413C170.863 178.302 169.84 177.91 168.938 177.235C168.029 176.545 167.31 175.606 166.781 174.419C166.191 173.094 165.948 171.852 166.053 170.693C166.165 169.512 166.532 168.491 167.152 167.631C167.766 166.756 168.545 166.108 169.489 165.688C170.204 165.369 170.94 165.197 171.694 165.171C172.464 165.138 173.212 165.261 173.938 165.54C174.673 165.797 175.348 166.207 175.965 166.772C176.574 167.322 177.077 168.02 177.471 168.865C177.565 169.116 177.557 169.365 177.449 169.614C177.341 169.863 177.165 170.042 176.921 170.15L167.9 174.167L166.787 172.774L175.58 168.859L175.357 169.342L175.134 168.839C174.81 168.235 174.367 167.794 173.805 167.515C173.252 167.214 172.662 167.057 172.036 167.044C171.409 167.031 170.815 167.15 170.251 167.4C169.795 167.604 169.375 167.891 168.993 168.262C168.619 168.611 168.331 169.049 168.128 169.577C167.934 170.083 167.856 170.666 167.893 171.324C167.931 171.982 168.126 172.707 168.479 173.499C168.872 174.382 169.393 175.08 170.041 175.594C170.705 176.102 171.444 176.411 172.26 176.522C173.069 176.618 173.892 176.48 174.73 176.107C175.278 175.863 175.719 175.584 176.054 175.271C176.389 174.957 176.649 174.641 176.835 174.321C177.03 173.979 177.178 173.657 177.281 173.356C177.418 173.131 177.586 172.974 177.784 172.886C177.997 172.791 178.214 172.786 178.434 172.87C178.654 172.955 178.811 173.104 178.906 173.317C179.021 173.576 179.001 173.858 178.846 174.165C178.614 174.833 178.214 175.513 177.646 176.204C177.087 176.873 176.388 177.393 175.551 177.766Z" fill="#081420"/>
<circle cx="94.8345" cy="97.5" r="6.5" fill="#6001D3"/>
<defs>
<filter id="filter0_d_17_2" x="0.400635" y="0.904785" width="412.677" height="420.787" filterUnits="userSpaceOnUse" color-interpolation-filters="sRGB">
<feFlood flood-opacity="0" result="BackgroundImageFix"/>
<feColorMatrix in="SourceAlpha" type="matrix" values="0 0 0 0 0 0 0 0 0 0 0 0 0 0 0 0 0 0 127 0" result="hardAlpha"/>
<feOffset dx="50" dy="80"/>
<feGaussianBlur stdDeviation="45"/>
<feColorMatrix type="matrix" values="0 0 0 0 0.670588 0 0 0 0 0.686275 0 0 0 0 0.780392 0 0 0 0.501961 0"/>
<feBlend mode="normal" in2="BackgroundImageFix" result="effect1_dropShadow_17_2"/>
<feBlend mode="normal" in="SourceGraphic" in2="effect1_dropShadow_17_2" result="shape"/>
</filter>
<filter id="filter1_d_17_2" x="-29.5994" y="-8.59961" width="332.677" height="340.787" filterUnits="userSpaceOnUse" color-interpolation-filters="sRGB">
<feFlood flood-opacity="0" result="BackgroundImageFix"/>
<feColorMatrix in="SourceAlpha" type="matrix" values="0 0 0 0 0 0 0 0 0 0 0 0 0 0 0 0 0 0 127 0" result="hardAlpha"/>
<feOffset dx="-20" dy="30"/>
<feGaussianBlur stdDeviation="25"/>
<feColorMatrix type="matrix" values="0 0 0 0 0.670588 0 0 0 0 0.686275 0 0 0 0 0.780392 0 0 0 0.501961 0"/>
<feBlend mode="normal" in2="BackgroundImageFix" result="effect1_dropShadow_17_2"/>
<feBlend mode="normal" in="SourceGraphic" in2="effect1_dropShadow_17_2" result="shape"/>
</filter>
</defs>
</svg>
